<?xml version="1.0" encoding="utf-8"?>
<!-- Generator: Adobe Illustrator 25.2.0, SVG Export Plug-In . SVG Version: 6.00 Build 0)  -->
<svg version="1.1" id="Layer_1" xmlns="http://www.w3.org/2000/svg" xmlns:xlink="http://www.w3.org/1999/xlink" x="0px" y="0px"
	 viewBox="0 0 16 16" style="enable-background:new 0 0 16 16;" xml:space="preserve">
<style type="text/css">
	.st0{fill:none;stroke:#002060;stroke-width:4.0117;stroke-miterlimit:10;}
	.st1{fill:none;stroke:#002060;stroke-width:4.0117;stroke-linecap:square;stroke-miterlimit:10;}
	.st2{fill:#002060;stroke:#002060;stroke-width:4.0117;stroke-linecap:square;stroke-miterlimit:10;}
	.st3{display:none;fill:#EF7D40;}
	.st4{fill:#002060;stroke:#002060;stroke-width:0.0696;stroke-miterlimit:10;}
	.st5{fill:#002060;}
</style>
<g>
	<g>
		<g>
			<g>
				<g>
					<path class="st4" d="M2.73,14.14h0.24v1.75H2.73V14.14z"/>
					<path class="st4" d="M3.21,14.14h1.4v0.22H4.03v1.53H3.79v-1.53H3.21V14.14z"/>
					<path class="st4" d="M5.43,14.14h0.73c0.06,0,0.1,0,0.14,0s0.08,0,0.11,0.01c0.03,0,0.06,0.01,0.08,0.02
						c0.02,0.01,0.05,0.02,0.07,0.03c0.15,0.08,0.23,0.22,0.23,0.42c0,0.05,0,0.1-0.01,0.14c-0.01,0.04-0.02,0.08-0.04,0.11
						c-0.02,0.03-0.04,0.06-0.08,0.09s-0.07,0.05-0.11,0.07c0.04,0.02,0.08,0.03,0.11,0.05c0.03,0.02,0.05,0.04,0.07,0.07
						s0.03,0.07,0.03,0.11c0.01,0.04,0.01,0.1,0.01,0.16v0.2c0,0.09,0.02,0.18,0.07,0.25l0.01,0.02H6.55
						c-0.01-0.05-0.02-0.09-0.03-0.13c-0.01-0.04-0.01-0.08-0.01-0.12v-0.22c0-0.15-0.06-0.24-0.17-0.26
						c-0.04-0.01-0.11-0.01-0.2-0.01H5.67v0.74H5.43V14.14z M5.67,14.35v0.56h0.46c0.04,0,0.08,0,0.11,0c0.03,0,0.05,0,0.07-0.01
						c0.02,0,0.04-0.01,0.05-0.01s0.03-0.01,0.05-0.02c0.08-0.04,0.12-0.12,0.12-0.24c0-0.06-0.01-0.11-0.04-0.15
						c-0.02-0.04-0.06-0.08-0.11-0.1c-0.05-0.02-0.13-0.03-0.24-0.03H5.67z"/>
					<path class="st4" d="M7.65,14.14H7.9l0.63,1.75H8.27l-0.18-0.52H7.42l-0.19,0.52H6.97L7.65,14.14z M7.77,14.4L7.5,15.16h0.52
						L7.77,14.4z"/>
					<path class="st4" d="M8.76,14.14h0.27l0.8,1.37v-1.37h0.24v1.75H9.8L9,14.5v1.38H8.76V14.14z"/>
					<path class="st4" d="M10.49,14.13h0.24v0.85l0.83-0.85h0.32l-0.71,0.71l0.7,1.04h-0.29l-0.58-0.87l-0.28,0.27v0.61h-0.24V14.13
						z"/>
					<path class="st4" d="M11.99,15.3h0.25v0.05c0,0.03,0,0.06,0,0.08c0,0.02,0.01,0.04,0.01,0.06c0.01,0.02,0.02,0.03,0.03,0.05
						c0.01,0.01,0.03,0.03,0.05,0.04c0.08,0.07,0.21,0.11,0.37,0.11c0.06,0,0.12-0.01,0.17-0.02c0.05-0.01,0.1-0.03,0.13-0.06
						c0.04-0.02,0.07-0.05,0.09-0.09c0.02-0.03,0.03-0.07,0.03-0.11c0-0.02,0-0.05-0.01-0.07c-0.01-0.02-0.02-0.05-0.03-0.07
						c-0.02-0.02-0.04-0.04-0.06-0.06c-0.03-0.02-0.06-0.04-0.1-0.05l-0.54-0.13c-0.12-0.04-0.2-0.1-0.26-0.17
						c-0.05-0.07-0.08-0.16-0.08-0.26c0-0.07,0.01-0.14,0.04-0.2c0.03-0.06,0.07-0.11,0.13-0.16s0.12-0.08,0.2-0.1
						c0.08-0.02,0.16-0.04,0.26-0.04c0.07,0,0.14,0.01,0.21,0.02c0.07,0.01,0.12,0.04,0.18,0.06s0.1,0.06,0.13,0.1
						s0.07,0.08,0.08,0.13c0.01,0.02,0.02,0.05,0.02,0.08c0,0.03,0.01,0.07,0.01,0.11l0,0.06h-0.25c0-0.03,0-0.05,0-0.07
						c0-0.02,0-0.04-0.01-0.05s-0.01-0.03-0.01-0.04c0-0.01-0.01-0.02-0.02-0.04c-0.02-0.02-0.03-0.04-0.06-0.06
						s-0.05-0.03-0.08-0.04s-0.06-0.02-0.1-0.03s-0.07-0.01-0.11-0.01c-0.05,0-0.1,0.01-0.14,0.02c-0.04,0.01-0.08,0.03-0.12,0.05
						c-0.03,0.02-0.06,0.05-0.08,0.08s-0.03,0.07-0.03,0.11c0,0.03,0,0.05,0.01,0.07c0,0.02,0.01,0.04,0.03,0.06
						s0.03,0.03,0.06,0.04c0.02,0.01,0.06,0.03,0.09,0.04l0.56,0.14c0.21,0.08,0.32,0.22,0.32,0.43c0,0.07-0.01,0.14-0.04,0.21
						s-0.07,0.12-0.12,0.17c-0.06,0.05-0.13,0.09-0.21,0.12c-0.09,0.03-0.19,0.04-0.31,0.04c-0.23,0-0.41-0.05-0.53-0.14
						c-0.12-0.09-0.18-0.23-0.18-0.42V15.3z"/>
				</g>
			</g>
		</g>
	</g>
	<g>
		<g>
			<path class="st5" d="M4.06,11.28V2.43H3.13v8.84c-0.24,0.15-0.41,0.43-0.41,0.74c0,0.48,0.39,0.87,0.87,0.87
				c0.48,0,0.87-0.39,0.87-0.87C4.47,11.7,4.3,11.43,4.06,11.28z M3.6,12.46c-0.25,0-0.45-0.2-0.45-0.45s0.2-0.45,0.45-0.45
				c0.25,0,0.45,0.2,0.45,0.45S3.84,12.46,3.6,12.46z"/>
			<path class="st5" d="M13.37,2.34H7.45v8.93c-0.24,0.15-0.41,0.43-0.41,0.74c0,0.48,0.39,0.87,0.87,0.87s0.87-0.39,0.87-0.87
				c0-0.31-0.16-0.58-0.41-0.74V3.27h4.07v3.69h-2.2c-0.26,0-0.5,0.16-0.6,0.4C9.55,7.57,9.58,7.82,9.72,8l1.91,3.58
				c-0.07,0.13-0.11,0.27-0.11,0.43c0,0.48,0.39,0.87,0.87,0.87c0.48,0,0.87-0.39,0.87-0.87c0-0.46-0.36-0.84-0.81-0.87L10.7,7.89
				h2.66V2.34z M7.91,12.46c-0.25,0-0.45-0.2-0.45-0.45s0.2-0.45,0.45-0.45s0.45,0.2,0.45,0.45S8.16,12.46,7.91,12.46z M12.38,11.56
				c0.25,0,0.45,0.2,0.45,0.45s-0.2,0.45-0.45,0.45c-0.25,0-0.45-0.2-0.45-0.45S12.13,11.56,12.38,11.56z"/>
			<path class="st5" d="M13.44,1.1V0.17H3.06V1.1H5.3v10.18c-0.25,0.15-0.41,0.43-0.41,0.74c0,0.48,0.39,0.87,0.87,0.87
				c0.48,0,0.87-0.39,0.87-0.87c0-0.31-0.16-0.58-0.41-0.74V1.1H13.44z M5.76,12.46c-0.25,0-0.45-0.2-0.45-0.45s0.2-0.45,0.45-0.45
				c0.25,0,0.45,0.2,0.45,0.45S6.01,12.46,5.76,12.46z"/>
		</g>
	</g>
</g>
</svg>
